<svg xmlns="http://www.w3.org/2000/svg" version="1.1" xmlns:xlink="http://www.w3.org/1999/xlink" xmlns:svgjs="http://svgjs.dev/svgjs" width="1000" height="636" viewBox="0 0 1000 636"><g transform="matrix(1,0,0,1,-0.6060606060606233,-0.4876461288328642)"><svg viewBox="0 0 396 252" data-background-color="#8abe53" preserveAspectRatio="xMidYMid meet" height="636" width="1000" xmlns="http://www.w3.org/2000/svg" xmlns:xlink="http://www.w3.org/1999/xlink"><g id="tight-bounds" transform="matrix(1,0,0,1,0.2400000000000091,4.6020125860206065)"><svg viewBox="0 0 395.52 247.2" height="247.2" width="395.52"><g><svg></svg></g><g><svg viewBox="0 0 395.52 247.2" height="247.2" width="395.52"><mask id="9758115a-404e-4afd-8095-2bd9d7fdcf7f"><rect width="640" height="400" fill="white"></rect><g transform="matrix(1,0,0,1,39.55199999999999,70.83219300361881)"><svg viewBox="0 0 316.416 105.53561399276236" height="105.53561399276236" width="316.416"><g><svg viewBox="0 0 316.416 105.53561399276236" height="105.53561399276236" width="316.416"><g><svg viewBox="0 0 316.416 105.53561399276236" height="105.53561399276236" width="316.416"><g><svg viewBox="0 0 316.416 105.53561399276236" height="105.53561399276236" width="316.416"><g id="SvgjsG1050"><svg viewBox="0 0 316.416 105.53561399276236" height="105.53561399276236" width="316.416" id="SvgjsSvg1049"><g><svg viewBox="0 0 316.416 105.53561399276236" height="105.53561399276236" width="316.416"><g transform="matrix(1,0,0,1,0,0)"><svg width="316.416" viewBox="-2.75 -39.849998474121094 166.7899932861328 56.29999923706055" height="105.53561399276236" data-palette-color="#4d7e3e"><path d="M16.1 0.3L16.1 0.3Q14.3-4.55 12.48-9.28 10.65-14 8.95-18.3 7.25-22.6 5.75-26.05L5.75-26.05Q4.7-28.5 4.1-29.7 3.5-30.9 2.95-31.3 2.4-31.7 1.5-31.8L1.5-31.8Q1.35-32.4 1.3-32.98 1.25-33.55 1.25-33.95L1.25-33.95Q1.75-33.9 2.45-33.88 3.15-33.85 3.98-33.83 4.8-33.8 5.65-33.8 6.5-33.8 7.3-33.8L7.3-33.8Q8.9-33.8 10.43-33.85 11.95-33.9 13.35-33.95L13.35-33.95Q13.35-33.5 13.28-32.93 13.2-32.35 13.1-31.8L13.1-31.8Q11.45-31.7 10.65-31.28 9.85-30.85 9.98-29.73 10.1-28.6 11.1-26.3L11.1-26.3Q12.45-23.1 13.75-19.8 15.05-16.5 16.32-13.13 17.6-9.75 18.9-6.15L18.9-6.15 18.15-6.15Q19.6-9.4 20.93-12.6 22.25-15.8 23.53-19.07 24.8-22.35 26-25.7L26-25.7Q26.95-28.5 26.58-30.03 26.2-31.55 23.95-31.8L23.95-31.8Q23.8-32.35 23.75-32.95 23.7-33.55 23.7-33.95L23.7-33.95Q24.45-33.9 25.13-33.88 25.8-33.85 26.5-33.83 27.2-33.8 27.95-33.8L27.95-33.8Q29.1-33.8 30.53-33.85 31.95-33.9 33.05-33.95L33.05-33.95Q33.05-33.4 33-32.88 32.95-32.35 32.8-31.8L32.8-31.8Q31.25-31.45 30.35-29.93 29.45-28.4 28.5-25.9L28.5-25.9Q26-19.45 23.38-12.95 20.75-6.45 18.05 0.1L18.05 0.1Q17.55 0.2 17.13 0.25 16.7 0.3 16.1 0.3ZM46.9 0.45L46.9 0.45Q43.35 0.45 41-1.15 38.65-2.75 37.47-5.48 36.3-8.2 36.3-11.45L36.3-11.45Q36.3-14.65 37.55-17.35 38.8-20.05 41.12-21.7 43.45-23.35 46.65-23.35L46.65-23.35Q49.9-23.35 51.87-21.95 53.85-20.55 54.82-18.2 55.8-15.85 56-13L56-13Q55.8-12 55.25-11.3L55.25-11.3Q54.4-11.3 52.7-11.3 51-11.3 48.85-11.28 46.7-11.25 44.45-11.18 42.2-11.1 40.2-11L40.2-11 40.2-13.55 50.8-13.55Q50.8-16.85 49.6-18.9 48.4-20.95 46.2-20.95L46.2-20.95Q45-20.95 43.85-20.23 42.7-19.5 41.95-17.68 41.2-15.85 41.2-12.5L41.2-12.5Q41.2-10.05 41.82-7.73 42.45-5.4 44.02-3.88 45.6-2.35 48.5-2.35L48.5-2.35Q50.15-2.35 51.75-3.1 53.35-3.85 54.6-5.25L54.6-5.25Q55-5.05 55.37-4.58 55.75-4.1 55.8-3.7L55.8-3.7Q54.1-1.45 51.87-0.5 49.65 0.45 46.9 0.45ZM68.75 12.45L68.75 12.45Q65.7 12.45 63.77 11.68 61.85 10.9 60.95 9.4 60.05 7.9 60.05 5.7L60.05 5.7Q60.05 3.8 61.07 2.4 62.1 1 63.95 0.2L63.95 0.2 66.45 0.4Q65.25 1.3 64.8 2.3 64.35 3.3 64.35 4.65L64.35 4.65Q64.35 7.2 65.62 8.5 66.9 9.8 69.95 9.8L69.95 9.8Q73.25 9.8 75.12 8.15 77 6.5 77 4.35L77 4.35Q77 3.05 76.37 2.3 75.75 1.55 73.97 1.2 72.2 0.85 68.75 0.85L68.75 0.85Q66.5 0.85 65.07 0.63 63.65 0.4 62.82-0.13 62-0.65 61.67-1.45 61.35-2.25 61.35-3.4L61.35-3.4Q61.35-5.05 62.32-6.63 63.3-8.2 64.85-9.45L64.85-9.45 66.7-8.15Q65.7-7.3 65.27-6.55 64.85-5.8 64.85-5.25L64.85-5.25Q64.85-4.35 65.32-3.9 65.8-3.45 67.35-3.3 68.9-3.15 72.1-3.15L72.1-3.15Q75.45-3.15 77.42-2.6 79.4-2.05 80.27-0.85 81.15 0.35 81.15 2.4L81.15 2.4Q81.15 4.1 80.22 5.88 79.3 7.65 77.65 9.13 76 10.6 73.72 11.53 71.45 12.45 68.75 12.45ZM69.95-6.95L69.95-6.95Q67.6-6.95 65.5-7.85 63.4-8.75 62.12-10.55 60.85-12.35 60.85-15.05L60.85-15.05Q60.85-17.35 61.85-19.23 62.85-21.1 64.87-22.23 66.9-23.35 69.85-23.35L69.85-23.35Q72.35-23.35 74.07-22.53 75.8-21.7 76.9-20.43 78-19.15 78.5-17.78 79-16.4 79-15.35L79-15.35Q79-13.05 77.97-11.13 76.95-9.2 74.92-8.08 72.9-6.95 69.95-6.95ZM70.55-9.25L70.55-9.25Q72.2-9.25 73.25-10.63 74.3-12 74.3-14.6L74.3-14.6Q74.3-17.25 73-19.18 71.7-21.1 69.35-21.1L69.35-21.1Q67.35-21.1 66.4-19.43 65.45-17.75 65.45-15.7L65.45-15.7Q65.45-12.6 66.8-10.93 68.15-9.25 70.55-9.25ZM81.55-19.8L81.55-19.8Q80.75-20 79.62-20.2 78.5-20.4 77.42-20.55 76.35-20.7 75.6-20.75L75.6-20.75 72.1-22.9 81.2-22.9Q81.4-22.25 81.47-21.43 81.55-20.6 81.55-19.8ZM96.14 0.45L96.14 0.45Q92.59 0.45 90.24-1.15 87.89-2.75 86.72-5.48 85.54-8.2 85.54-11.45L85.54-11.45Q85.54-14.65 86.79-17.35 88.04-20.05 90.37-21.7 92.69-23.35 95.89-23.35L95.89-23.35Q99.14-23.35 101.12-21.95 103.09-20.55 104.07-18.2 105.04-15.85 105.24-13L105.24-13Q105.04-12 104.49-11.3L104.49-11.3Q103.64-11.3 101.94-11.3 100.24-11.3 98.09-11.28 95.94-11.25 93.69-11.18 91.44-11.1 89.44-11L89.44-11 89.44-13.55 100.04-13.55Q100.04-16.85 98.84-18.9 97.64-20.95 95.44-20.95L95.44-20.95Q94.24-20.95 93.09-20.23 91.94-19.5 91.19-17.68 90.44-15.85 90.44-12.5L90.44-12.5Q90.44-10.05 91.07-7.73 91.69-5.4 93.27-3.88 94.84-2.35 97.74-2.35L97.74-2.35Q99.39-2.35 100.99-3.1 102.59-3.85 103.84-5.25L103.84-5.25Q104.24-5.05 104.62-4.58 104.99-4.1 105.04-3.7L105.04-3.7Q103.34-1.45 101.12-0.5 98.89 0.45 96.14 0.45ZM109.04 0.15L109.04 0.15Q109.04-0.35 109.09-0.93 109.14-1.5 109.29-2L109.29-2Q111.29-2 112.02-2.93 112.74-3.85 112.74-6.35L112.74-6.35 112.74-28.75Q112.74-29.95 112.52-30.73 112.29-31.5 111.49-31.9 110.69-32.3 108.99-32.3L108.99-32.3Q108.99-32.85 109.09-33.3 109.19-33.75 109.44-34.15L109.44-34.15Q110.19-34.15 111.57-34.4 112.94-34.65 114.24-35.05 115.54-35.45 116.14-35.85L116.14-35.85Q116.59-35.7 116.92-35.25 117.24-34.8 117.24-33.85L117.24-33.85 117.24-6.35Q117.24-3.85 117.92-2.93 118.59-2 120.19-2L120.19-2Q120.34-1.5 120.39-0.85 120.44-0.2 120.44 0.15L120.44 0.15Q119.59 0.1 118.64 0.08 117.69 0.05 116.72 0.03 115.74 0 114.79 0L114.79 0Q113.84 0 112.82 0.03 111.79 0.05 110.84 0.08 109.89 0.1 109.04 0.15ZM123.99 0.15L123.99 0.15Q123.99-0.35 124.04-0.93 124.09-1.5 124.24-2L124.24-2Q126.24-2 126.96-2.93 127.69-3.85 127.69-6.35L127.69-6.35 127.69-28.75Q127.69-29.95 127.46-30.73 127.24-31.5 126.44-31.9 125.64-32.3 123.94-32.3L123.94-32.3Q123.94-32.85 124.04-33.3 124.14-33.75 124.39-34.15L124.39-34.15Q125.14-34.15 126.51-34.4 127.89-34.65 129.19-35.05 130.49-35.45 131.09-35.85L131.09-35.85Q131.54-35.7 131.86-35.25 132.19-34.8 132.19-33.85L132.19-33.85 132.19-6.35Q132.19-3.85 132.86-2.93 133.54-2 135.14-2L135.14-2Q135.29-1.5 135.34-0.85 135.39-0.2 135.39 0.15L135.39 0.15Q134.54 0.1 133.59 0.08 132.64 0.05 131.66 0.03 130.69 0 129.74 0L129.74 0Q128.79 0 127.76 0.03 126.74 0.05 125.79 0.08 124.84 0.1 123.99 0.15ZM154.29 0.45L154.29 0.45Q153.74 0.2 153.41-0.45 153.09-1.1 153.09-2.5L153.09-2.5Q153.09-2.95 153.14-3.58 153.19-4.2 153.34-4.7L153.34-4.7 153.44-4.7Q153.29-3.9 152.76-2.98 152.24-2.05 151.39-1.35L151.39-1.35Q150.54-0.6 149.24-0.13 147.94 0.35 146.09 0.35L146.09 0.35Q142.94 0.35 141.29-1.07 139.64-2.5 139.64-4.95L139.64-4.95Q139.64-6.9 140.56-8.28 141.49-9.65 142.96-10.58 144.44-11.5 146.16-12.05 147.89-12.6 149.54-12.9 151.19-13.2 152.44-13.4L152.44-13.4Q152.44-15.45 152.36-16.6 152.29-17.75 152.06-18.43 151.84-19.1 151.39-19.6L151.39-19.6Q150.79-20.35 150.01-20.73 149.24-21.1 148.29-21.1L148.29-21.1Q146.64-21.1 145.69-20.08 144.74-19.05 144.34-17.7 143.94-16.35 143.89-15.3L143.89-15.3Q143.34-15.3 142.51-15.38 141.69-15.45 141.29-15.65L141.29-15.65Q141.39-16.9 141.34-18.45 141.29-20 141.04-21.1L141.04-21.1Q143.09-22.15 145.36-22.75 147.64-23.35 149.54-23.35L149.54-23.35Q151.39-23.35 152.71-22.83 154.04-22.3 154.84-21.45L154.84-21.45Q156.14-20.2 156.54-18.18 156.94-16.15 156.94-12.8L156.94-12.8 156.94-7.3Q156.94-5.9 157.16-5.08 157.39-4.25 158.04-3.88 158.69-3.5 160.04-3.4L160.04-3.4Q160.04-2.9 159.99-2.27 159.94-1.65 159.74-1.1L159.74-1.1Q158.49-1.05 156.96-0.63 155.44-0.2 154.29 0.45ZM147.49-2.4L147.49-2.4Q148.59-2.4 149.74-3.13 150.89-3.85 151.66-5.4 152.44-6.95 152.44-9.45L152.44-9.45 152.44-11.35Q151.19-11.2 149.79-10.93 148.39-10.65 147.19-10.1 145.99-9.55 145.24-8.58 144.49-7.6 144.49-5.95L144.49-5.95Q144.49-4.1 145.39-3.25 146.29-2.4 147.49-2.4Z" opacity="1" transform="matrix(1,0,0,1,0,0)" fill="black" class="wordmark-text-0" id="SvgjsPath1048" stroke-width="7" stroke="black" stroke-linejoin="round"></path></svg></g></svg></g></svg></g></svg></g></svg></g></svg></g></svg></g></mask><g transform="matrix(1,0,0,1,39.55199999999999,70.83219300361881)"><svg viewBox="0 0 316.416 105.53561399276236" height="105.53561399276236" width="316.416"><g><svg viewBox="0 0 316.416 105.53561399276236" height="105.53561399276236" width="316.416"><g><svg viewBox="0 0 316.416 105.53561399276236" height="105.53561399276236" width="316.416"><g><svg viewBox="0 0 316.416 105.53561399276236" height="105.53561399276236" width="316.416"><g id="textblocktransform"><svg viewBox="0 0 316.416 105.53561399276236" height="105.53561399276236" width="316.416" id="textblock"><g><svg viewBox="0 0 316.416 105.53561399276236" height="105.53561399276236" width="316.416"><g transform="matrix(1,0,0,1,0,0)"><svg width="316.416" viewBox="-2.75 -39.849998474121094 166.7899932861328 56.29999923706055" height="105.53561399276236" data-palette-color="#4d7e3e"><path d="M16.1 0.3L16.1 0.3Q14.3-4.55 12.48-9.28 10.65-14 8.95-18.3 7.25-22.6 5.75-26.05L5.75-26.05Q4.7-28.5 4.1-29.7 3.5-30.9 2.95-31.3 2.4-31.7 1.5-31.8L1.5-31.8Q1.35-32.4 1.3-32.98 1.25-33.55 1.25-33.95L1.25-33.95Q1.75-33.9 2.45-33.88 3.15-33.85 3.98-33.83 4.8-33.8 5.65-33.8 6.5-33.8 7.3-33.8L7.3-33.8Q8.9-33.8 10.43-33.85 11.95-33.9 13.35-33.95L13.35-33.95Q13.35-33.5 13.28-32.93 13.2-32.35 13.1-31.8L13.1-31.8Q11.45-31.7 10.65-31.28 9.85-30.85 9.98-29.73 10.1-28.6 11.1-26.3L11.1-26.3Q12.45-23.1 13.75-19.8 15.05-16.5 16.32-13.13 17.6-9.75 18.9-6.15L18.9-6.15 18.15-6.15Q19.6-9.4 20.93-12.6 22.25-15.8 23.53-19.07 24.8-22.35 26-25.7L26-25.7Q26.95-28.5 26.58-30.03 26.2-31.55 23.95-31.8L23.95-31.8Q23.8-32.35 23.75-32.95 23.7-33.55 23.7-33.95L23.7-33.95Q24.45-33.9 25.13-33.88 25.8-33.85 26.5-33.83 27.2-33.8 27.95-33.8L27.95-33.8Q29.1-33.8 30.53-33.85 31.95-33.9 33.05-33.95L33.05-33.95Q33.05-33.4 33-32.88 32.95-32.35 32.8-31.8L32.8-31.8Q31.25-31.45 30.35-29.93 29.45-28.4 28.5-25.9L28.5-25.9Q26-19.45 23.38-12.95 20.75-6.45 18.05 0.1L18.05 0.1Q17.55 0.2 17.13 0.25 16.7 0.3 16.1 0.3ZM46.9 0.45L46.9 0.45Q43.35 0.45 41-1.15 38.65-2.75 37.47-5.48 36.3-8.2 36.3-11.45L36.3-11.45Q36.3-14.65 37.55-17.35 38.8-20.05 41.12-21.7 43.45-23.35 46.65-23.35L46.65-23.35Q49.9-23.35 51.87-21.95 53.85-20.55 54.82-18.2 55.8-15.85 56-13L56-13Q55.8-12 55.25-11.3L55.25-11.3Q54.4-11.3 52.7-11.3 51-11.3 48.85-11.28 46.7-11.25 44.45-11.18 42.2-11.1 40.2-11L40.2-11 40.2-13.55 50.8-13.55Q50.8-16.85 49.6-18.9 48.4-20.95 46.2-20.95L46.2-20.95Q45-20.95 43.85-20.23 42.7-19.5 41.95-17.68 41.2-15.85 41.2-12.5L41.2-12.5Q41.2-10.05 41.82-7.73 42.45-5.4 44.02-3.88 45.6-2.35 48.5-2.35L48.5-2.35Q50.15-2.35 51.75-3.1 53.35-3.85 54.6-5.25L54.6-5.25Q55-5.05 55.37-4.58 55.75-4.1 55.8-3.7L55.8-3.7Q54.1-1.45 51.87-0.5 49.65 0.45 46.9 0.45ZM68.75 12.45L68.75 12.45Q65.7 12.45 63.77 11.68 61.85 10.9 60.95 9.4 60.05 7.9 60.05 5.7L60.05 5.7Q60.05 3.8 61.07 2.4 62.1 1 63.95 0.2L63.95 0.2 66.45 0.4Q65.25 1.3 64.8 2.3 64.35 3.3 64.35 4.65L64.35 4.65Q64.35 7.2 65.62 8.5 66.9 9.8 69.95 9.8L69.95 9.8Q73.25 9.8 75.12 8.15 77 6.5 77 4.35L77 4.35Q77 3.05 76.37 2.3 75.75 1.55 73.97 1.2 72.2 0.85 68.75 0.85L68.75 0.85Q66.5 0.85 65.07 0.63 63.65 0.4 62.82-0.13 62-0.65 61.67-1.45 61.35-2.25 61.35-3.4L61.35-3.4Q61.35-5.05 62.32-6.63 63.3-8.2 64.85-9.45L64.85-9.45 66.7-8.15Q65.7-7.3 65.27-6.55 64.85-5.8 64.85-5.25L64.85-5.25Q64.85-4.35 65.32-3.9 65.8-3.45 67.35-3.3 68.9-3.15 72.1-3.15L72.1-3.15Q75.45-3.15 77.42-2.6 79.4-2.05 80.27-0.85 81.15 0.35 81.15 2.4L81.15 2.4Q81.15 4.1 80.22 5.88 79.3 7.65 77.65 9.13 76 10.6 73.72 11.53 71.45 12.45 68.75 12.45ZM69.95-6.95L69.95-6.95Q67.6-6.95 65.5-7.85 63.4-8.75 62.12-10.55 60.85-12.35 60.85-15.05L60.85-15.05Q60.85-17.35 61.85-19.23 62.85-21.1 64.87-22.23 66.9-23.35 69.85-23.35L69.85-23.35Q72.35-23.35 74.07-22.53 75.8-21.7 76.9-20.43 78-19.15 78.5-17.78 79-16.4 79-15.35L79-15.35Q79-13.05 77.97-11.13 76.95-9.2 74.92-8.08 72.9-6.95 69.95-6.95ZM70.55-9.25L70.55-9.25Q72.2-9.25 73.25-10.63 74.3-12 74.3-14.6L74.3-14.6Q74.3-17.25 73-19.18 71.7-21.1 69.35-21.1L69.35-21.1Q67.35-21.1 66.4-19.43 65.45-17.75 65.45-15.7L65.45-15.7Q65.45-12.6 66.8-10.93 68.15-9.25 70.55-9.25ZM81.55-19.8L81.55-19.8Q80.75-20 79.62-20.2 78.5-20.4 77.42-20.55 76.35-20.7 75.6-20.75L75.6-20.75 72.1-22.9 81.2-22.9Q81.4-22.25 81.47-21.43 81.55-20.6 81.55-19.8ZM96.14 0.45L96.14 0.45Q92.59 0.45 90.24-1.15 87.89-2.75 86.72-5.48 85.54-8.2 85.54-11.45L85.54-11.45Q85.54-14.65 86.79-17.35 88.04-20.05 90.37-21.7 92.69-23.35 95.89-23.35L95.89-23.35Q99.14-23.35 101.12-21.95 103.09-20.55 104.07-18.2 105.04-15.85 105.24-13L105.24-13Q105.04-12 104.49-11.3L104.49-11.3Q103.64-11.3 101.94-11.3 100.24-11.3 98.09-11.28 95.94-11.25 93.69-11.18 91.44-11.1 89.44-11L89.44-11 89.44-13.55 100.04-13.55Q100.04-16.85 98.84-18.9 97.64-20.95 95.44-20.95L95.44-20.95Q94.24-20.95 93.09-20.23 91.94-19.5 91.19-17.68 90.44-15.85 90.44-12.5L90.44-12.5Q90.44-10.05 91.07-7.73 91.69-5.4 93.27-3.88 94.84-2.35 97.74-2.35L97.74-2.35Q99.39-2.35 100.99-3.1 102.59-3.85 103.84-5.25L103.84-5.25Q104.24-5.05 104.62-4.58 104.99-4.1 105.04-3.7L105.04-3.7Q103.34-1.45 101.12-0.5 98.89 0.45 96.14 0.45ZM109.04 0.15L109.04 0.15Q109.04-0.35 109.09-0.93 109.14-1.5 109.29-2L109.29-2Q111.29-2 112.02-2.93 112.74-3.85 112.74-6.35L112.74-6.35 112.74-28.75Q112.74-29.95 112.52-30.73 112.29-31.5 111.49-31.9 110.69-32.3 108.99-32.3L108.99-32.3Q108.99-32.85 109.09-33.3 109.19-33.75 109.44-34.15L109.44-34.15Q110.19-34.15 111.57-34.4 112.94-34.65 114.24-35.05 115.54-35.45 116.14-35.85L116.14-35.85Q116.59-35.7 116.92-35.25 117.24-34.8 117.24-33.85L117.24-33.85 117.24-6.35Q117.24-3.85 117.92-2.93 118.59-2 120.19-2L120.19-2Q120.34-1.5 120.39-0.85 120.44-0.2 120.44 0.15L120.44 0.15Q119.59 0.1 118.64 0.08 117.69 0.05 116.72 0.03 115.74 0 114.79 0L114.79 0Q113.84 0 112.82 0.03 111.79 0.05 110.84 0.08 109.89 0.1 109.04 0.15ZM123.99 0.15L123.99 0.15Q123.99-0.35 124.04-0.93 124.09-1.5 124.24-2L124.24-2Q126.24-2 126.96-2.93 127.69-3.85 127.69-6.35L127.69-6.35 127.69-28.75Q127.69-29.95 127.46-30.73 127.24-31.5 126.44-31.9 125.64-32.3 123.94-32.3L123.94-32.3Q123.94-32.85 124.04-33.3 124.14-33.75 124.39-34.15L124.39-34.15Q125.14-34.15 126.51-34.4 127.89-34.65 129.19-35.05 130.49-35.45 131.09-35.85L131.09-35.85Q131.54-35.7 131.86-35.25 132.19-34.8 132.19-33.85L132.19-33.85 132.19-6.35Q132.19-3.85 132.86-2.93 133.54-2 135.14-2L135.14-2Q135.29-1.5 135.34-0.85 135.39-0.2 135.39 0.15L135.39 0.15Q134.54 0.1 133.59 0.08 132.64 0.05 131.66 0.03 130.69 0 129.74 0L129.74 0Q128.79 0 127.76 0.03 126.74 0.05 125.79 0.08 124.84 0.1 123.99 0.15ZM154.29 0.45L154.29 0.45Q153.74 0.2 153.41-0.45 153.09-1.1 153.09-2.5L153.09-2.5Q153.09-2.95 153.14-3.58 153.19-4.2 153.34-4.7L153.34-4.7 153.44-4.7Q153.29-3.9 152.76-2.98 152.24-2.05 151.39-1.35L151.39-1.35Q150.54-0.6 149.24-0.13 147.94 0.35 146.09 0.35L146.09 0.35Q142.94 0.35 141.29-1.07 139.64-2.5 139.64-4.95L139.64-4.95Q139.64-6.9 140.56-8.28 141.49-9.65 142.96-10.58 144.44-11.5 146.16-12.05 147.89-12.6 149.54-12.9 151.19-13.2 152.44-13.4L152.44-13.4Q152.44-15.45 152.36-16.6 152.29-17.75 152.06-18.43 151.84-19.1 151.39-19.6L151.39-19.6Q150.79-20.35 150.01-20.73 149.24-21.1 148.29-21.1L148.29-21.1Q146.64-21.1 145.69-20.08 144.74-19.05 144.34-17.7 143.94-16.35 143.89-15.3L143.89-15.3Q143.34-15.3 142.51-15.38 141.69-15.45 141.29-15.65L141.29-15.65Q141.39-16.9 141.34-18.45 141.29-20 141.04-21.1L141.04-21.1Q143.09-22.15 145.36-22.75 147.64-23.35 149.54-23.35L149.54-23.35Q151.39-23.35 152.71-22.83 154.04-22.3 154.84-21.45L154.84-21.45Q156.14-20.2 156.54-18.18 156.94-16.15 156.94-12.8L156.94-12.8 156.94-7.3Q156.94-5.9 157.16-5.08 157.39-4.25 158.04-3.88 158.69-3.5 160.04-3.4L160.04-3.4Q160.04-2.9 159.99-2.27 159.94-1.65 159.74-1.1L159.74-1.1Q158.49-1.05 156.96-0.63 155.44-0.2 154.29 0.45ZM147.49-2.4L147.49-2.4Q148.59-2.4 149.74-3.13 150.89-3.85 151.66-5.4 152.44-6.95 152.44-9.45L152.44-9.45 152.44-11.35Q151.19-11.2 149.79-10.93 148.39-10.65 147.19-10.1 145.99-9.55 145.24-8.58 144.49-7.6 144.49-5.95L144.49-5.95Q144.49-4.1 145.39-3.25 146.29-2.4 147.49-2.4Z" opacity="1" transform="matrix(1,0,0,1,0,0)" fill="#4d7e3e" class="wordmark-text-0" data-fill-palette-color="primary" id="text-0"></path></svg></g></svg></g></svg></g></svg></g></svg></g></svg></g></svg></g><g mask="url(#9758115a-404e-4afd-8095-2bd9d7fdcf7f)"><g transform="matrix(2.6959866702446664, 0, 0, 2.6959866702446664, 73.64313726056012, 1)"><svg xmlns="http://www.w3.org/2000/svg" data-name="Layer 1" viewBox="3.9623630046844482 4.519999980926514 92.07527923583984 90.95000457763672" x="0" y="0" height="90.95000457763672" width="92.07527923583984" class="icon-none" data-fill-palette-color="accent" id="none"><path d="M26.29 58.6V81.7H73.71V58.6a2 2 0 0 1 4 0V83.7a2 2 0 0 1-2 2H24.29a2 2 0 0 1-2-2V58.6a2 2 0 0 1 4 0ZM89.41 81.7H87.48V59.36a2 2 0 0 0-4 0V83.7a2 2 0 0 0 2 2h3.93a2.89 2.89 0 0 1 0 5.77H10.59a2.89 2.89 0 0 1 0-5.77h3.93a2 2 0 0 0 2-2V59.36a2 2 0 1 0-4 0V81.7H10.59a6.89 6.89 0 0 0 0 13.77H89.41a6.89 6.89 0 0 0 0-13.77ZM81.85 52.6A13.83 13.83 0 0 1 71.2 47.55 13.82 13.82 0 0 1 60.56 52.6 13.66 13.66 0 0 1 50 47.67 13.66 13.66 0 0 1 39.44 52.6a13.82 13.82 0 0 1-10.64-5.06A13.82 13.82 0 0 1 18.15 52.6q-0.48 0-0.94 0A12.63 12.63 0 0 1 7.13 46.35a13.43 13.43 0 0 1-0.75-12.41L17.47 9.29a8.09 8.09 0 0 1 7.37-4.77H75.16a8.09 8.09 0 0 1 7.37 4.77L93.61 33.94a13.43 13.43 0 0 1-0.75 12.41 12.63 12.63 0 0 1-10.08 6.22C82.48 52.59 82.17 52.6 81.85 52.6Zm0-4l0.67 0a8.68 8.68 0 0 0 6.92-4.29A9.43 9.43 0 0 0 90 35.58L78.88 10.93a4.08 4.08 0 0 0-3.72-2.41H24.84a4.08 4.08 0 0 0-3.72 2.41L10 35.58a9.43 9.43 0 0 0 0.53 8.71 8.68 8.68 0 0 0 6.92 4.29h0l0.67 0A9.81 9.81 0 0 0 27 43a2 2 0 0 1 3.62 0 9.81 9.81 0 0 0 8.83 5.62 9.71 9.71 0 0 0 8.77-5.48 2 2 0 0 1 3.59 0 9.71 9.71 0 0 0 8.77 5.48A9.81 9.81 0 0 0 69.4 43 2 2 0 0 1 73 43 9.81 9.81 0 0 0 81.85 48.6Z" fill="#4d7e3e" data-fill-palette-color="accent"></path></svg></g></g></svg></g><defs></defs></svg><rect width="395.52" height="247.2" fill="none" stroke="none" visibility="hidden"></rect></g></svg></g></svg>